<svg xmlns="http://www.w3.org/2000/svg" viewBox="0 0 400.55 230"><defs><style>.cls-1{fill:#e23939;}</style></defs><g id="Layer_2" data-name="Layer 2"><g id="Layer_1-2" data-name="Layer 1"><path class="cls-1" d="M74.83,83.05a10.2,10.2,0,0,0-8.13,3.62q-3.14,3.63-3.13,11.65,0,6.32,2.7,10.06t8.26,3.74a12,12,0,0,0,8.71-3.62,11.76,11.76,0,0,0,3.7-8.72A20.15,20.15,0,0,0,83.51,88Q80.07,83,74.83,83.05Z"/><path class="cls-1" d="M383.86,14.52a27,27,0,0,0-29.47,5.86l-51.5,51.51V40.49A40.49,40.49,0,0,0,262.39,0H40.49A40.49,40.49,0,0,0,0,40.49v149A40.49,40.49,0,0,0,40.49,230h221.9a40.49,40.49,0,0,0,40.5-40.49v-31.4l51.5,51.51a27,27,0,0,0,46.16-19.11v-151A27,27,0,0,0,383.86,14.52ZM103.06,159.33q-14.27,14.8-45.66,14.81a120.4,120.4,0,0,1-15.73-.77V149.23a72.55,72.55,0,0,0,13.26,1.23q16.35,0,25.23-6.75t9.64-21.33h-.93a27.66,27.66,0,0,1-5.94,8,20.22,20.22,0,0,1-7.17,3.77,36.09,36.09,0,0,1-10.57,1.32q-14.65,0-22.91-9.8T34,98.7Q34,80,44.71,69.32T74,58.67q20.67,0,32,13.73t11.33,39Q117.33,144.52,103.06,159.33Zm84.2,13.27H156.33V112.9q0-10.87.47-19.9a67.12,67.12,0,0,1-7.1,7.25l-12.81,10.56L121.08,91.38,159.8,59.83h27.46Zm84.66,0H241V112.9q0-10.87.47-19.9a67.12,67.12,0,0,1-7.1,7.25l-12.8,10.56L205.74,91.38l38.72-31.55h27.46Z"/></g></g></svg>